<svg xmlns="http://www.w3.org/2000/svg" viewBox="0 0 19.85 22"><defs><style>.cls-1{fill:#fff;}</style></defs><g id="layer_2"><g id="layer_1-2"><g id="layer_2-2"><g id="layer_1-2-2"><g id="layer_2-2-2"><g id="layer_1-2-2-2"><path class="cls-1" d="M17.46,0a2.41,2.41,0,0,1,2.39,2.26V22l-2.43-2.08-1.35-1.23-1.49-1.27.62,2H2.36A2.28,2.28,0,0,1,0,17.25H0v-15A2.32,2.32,0,0,1,2.33,0ZM11.85,5.21h0l-.18.18A7.28,7.28,0,0,1,14.49,6.8a9.92,9.92,0,0,0-3.49-1,9.49,9.49,0,0,0-2.26,0H8.55A8.07,8.07,0,0,0,6,6.42l-.67.3A6.52,6.52,0,0,1,8.25,5.34l-.12-.13A5.5,5.5,0,0,0,5,6.42a14.36,14.36,0,0,0-1.65,6.41,4,4,0,0,0,3.43,1.66s.36-.49.74-.91a3.7,3.7,0,0,1-2-1.32l.3.18H6c.3.12.6.25.85.37a7.81,7.81,0,0,0,1.65.48,9.06,9.06,0,0,0,2.94,0,7.81,7.81,0,0,0,1.65-.48c.44-.21.87-.43,1.29-.68a3.74,3.74,0,0,1-2,1.29c.3.42.73.92.73.92a4.77,4.77,0,0,0,3.57-1.51A14.35,14.35,0,0,0,15,6.42a5.42,5.42,0,0,0-3.14-1.19h0ZM12,9.26a1.23,1.23,0,1,1-1.17,1.29v-.06A1.2,1.2,0,0,1,12,9.26h0Zm-4.16,0A1.22,1.22,0,0,1,9,10.59a1.24,1.24,0,0,1-1.11,1.12,1.23,1.23,0,0,1,0-2.45Z"/></g></g></g></g></g></g></svg>