<svg xmlns="http://www.w3.org/2000/svg" viewBox="0 0 22 21.48"><defs><style>.cls-1{fill:#fff;}</style></defs><g id="layer_2" data-name="layer 2"><g id="layer_1-2" data-name="layer 1"><g id="layer_2-2" data-name="layer 2"><g id="layer_1-2-2" data-name="layer 1-2"><g id="layer_2-2-2" data-name="layer 2-2"><g id="layer_1-2-2-2" data-name="layer 1-2-2"><path class="cls-1" d="M11,0A11,11,0,0,0,7.52,21.46c.56.11.75-.23.75-.52V19.1c-3.06.66-3.67-1.48-3.67-1.48A2.88,2.88,0,0,0,3.33,16c-1-.68.08-.67.08-.67A2.35,2.35,0,0,1,5.1,16.44a2.33,2.33,0,0,0,3.17.92h0A2.45,2.45,0,0,1,9,15.88c-2.44-.28-5-1.19-5-5.44a4.26,4.26,0,0,1,1.14-3A3.9,3.9,0,0,1,5.2,4.59s.92-.3,3,1.13a10.08,10.08,0,0,1,5.5,0c2.1-1.45,3-1.13,3-1.13a3.91,3.91,0,0,1,.11,2.91A4.2,4.2,0,0,1,18,10.45c0,4.24-2.58,5.17-5,5.44a2.63,2.63,0,0,1,.79,2v3c0,.36.19.63.75.52A11,11,0,0,0,11,0"/></g></g></g></g></g></g></svg>