<svg xmlns="http://www.w3.org/2000/svg" viewBox="0 0 40 21.08"><defs><style>.cls-1{fill:#fff;fill-rule:evenodd;}</style></defs><g id="layer_2" data-name="layer 2"><g id="layer_1-2" data-name="layer 1"><path class="cls-1" d="M35.82,13.4H40C38.73,2.49,33.26-5.87,23.59,5.27l-3.52,4c-1.7,1.36-3.5,1.86-4.7-1.64H13.23c.77,3,2.38,5,4.82,4l-.52.6c-3.93,2.95-6.37-.08-7.31-4.56H7.16c1,5.86,4,10.19,9,6.8-6.87,7.22-10.87,1.31-12-6.8H0C1.27,18.59,6.74,27,16.41,15.81l3.52-4c1.7-1.37,3.5-1.87,4.7,1.63h2.14c-.77-3-2.38-5-4.82-4l.52-.6c3.93-3,6.37.08,7.31,4.55h3.06c-1-5.86-4-10.19-9-6.79C30.67-.62,34.67,5.29,35.82,13.4Z"/></g></g></svg>