<svg xmlns="http://www.w3.org/2000/svg" viewBox="0 0 22 22"><defs><style>.cls-1{fill:#fff;}</style></defs><g id="layer_2" data-name="layer 2"><g id="layer_1-2" data-name="layer 1"><path class="cls-1" d="M0,0V22H22V0ZM18.28,5.21,17.1,6.34a.33.33,0,0,0-.13.34V15a.33.33,0,0,0,.13.33l1.15,1.13v.25h-5.8v-.25l1.2-1.16c.11-.12.11-.15.11-.33V8.24l-3.31,8.43H10L6.13,8.24v5.65a.78.78,0,0,0,.22.65L7.9,16.42v.25H3.5v-.25l1.55-1.88a.74.74,0,0,0,.2-.65V7.36a.55.55,0,0,0-.19-.48L3.68,5.21V5H8l3.31,7.27L14.19,5h4.09Z"/></g></g></svg>