<svg xmlns="http://www.w3.org/2000/svg" viewBox="0 0 22 17.88"><defs><style>.cls-1{fill:#fff;}</style></defs><g id="layer_2" data-name="layer 2"><g id="layer_1-2" data-name="layer 1"><g id="layer_2-2" data-name="layer 2"><g id="layer_1-2-2" data-name="layer 1-2"><g id="layer_2-2-2" data-name="layer 2-2"><g id="layer_1-2-2-2" data-name="layer 1-2-2"><path class="cls-1" d="M22,2.13a9.38,9.38,0,0,1-2.59.7,4.66,4.66,0,0,0,2-2.49,9,9,0,0,1-2.86,1.09,4.51,4.51,0,0,0-7.81,3.09,6,6,0,0,0,.11,1A12.83,12.83,0,0,1,1.54.83,4.33,4.33,0,0,0,.92,3.1a4.56,4.56,0,0,0,2,3.76,4.61,4.61,0,0,1-2-.57v.06a4.52,4.52,0,0,0,3.61,4.42,4.71,4.71,0,0,1-1.18.15,4.15,4.15,0,0,1-.86-.06A4.5,4.5,0,0,0,6.7,14a9.07,9.07,0,0,1-5.59,1.93A6.89,6.89,0,0,1,0,15.85a12.79,12.79,0,0,0,6.92,2A12.75,12.75,0,0,0,19.75,5.21h0V4.46A10.16,10.16,0,0,0,22,2.13Z"/></g></g></g></g></g></g></svg>